<svg width="45.000000" height="45.000000" viewBox="0 0 45 45" fill="none" xmlns="http://www.w3.org/2000/svg" xmlns:xlink="http://www.w3.org/1999/xlink">
	<desc>
			Created with Pixso.
	</desc>
	<defs/>
	<circle id="Oval" cx="22.500000" cy="22.500000" r="22.500000" fill="#F2F4F7"/>
	<path id="路径" d="M30.5036 24.2068L24.308 24.2068L24.308 30.3517C24.308 31.3401 23.498 32.1428 22.5 32.1428C22.0226 32.1454 21.5638 31.9581 21.2247 31.6221C20.8855 31.2861 20.6939 30.8291 20.692 30.3517L20.692 24.2068L14.4964 24.2068C13.5687 24.1164 12.8602 23.3381 12.8571 22.406C12.8571 21.4779 13.5635 20.7016 14.4964 20.6052L20.6727 20.6052L20.6727 14.482C20.7727 13.5546 21.5576 12.853 22.4904 12.8572C23.4257 12.8572 24.2116 13.5563 24.308 14.482L24.308 20.6052L30.5036 20.6052C31.4365 20.7016 32.1429 21.4779 32.1429 22.406C32.1398 23.3381 31.4313 24.1164 30.5036 24.2068L30.5036 24.2068Z" fill-rule="evenodd" fill="#282D30"/>
</svg>
